<svg width="41" height="40" viewBox="0 0 41 40" fill="none" xmlns="http://www.w3.org/2000/svg">
<path d="M20.4997 36.6668C17.5552 36.6668 15.1525 36.2016 13.2913 35.271C11.4302 34.3404 10.4997 33.1391 10.4997 31.6668C10.4997 31.0002 10.7011 30.3821 11.1038 29.8127C11.5066 29.2432 12.0691 28.7502 12.7913 28.3335L15.4163 30.7918C15.1663 30.9029 14.8955 31.0279 14.6038 31.1668C14.3122 31.3057 14.083 31.4724 13.9163 31.6668C14.2775 32.1113 15.1108 32.5002 16.4163 32.8335C17.7219 33.1668 19.083 33.3335 20.4997 33.3335C21.9163 33.3335 23.2844 33.1668 24.6038 32.8335C25.9233 32.5002 26.7636 32.1113 27.1247 31.6668C26.9302 31.4446 26.6802 31.2641 26.3747 31.1252C26.0691 30.9863 25.7775 30.8613 25.4997 30.7502L28.083 28.2502C28.8608 28.6946 29.458 29.2016 29.8747 29.771C30.2913 30.3404 30.4997 30.9724 30.4997 31.6668C30.4997 33.1391 29.5691 34.3404 27.708 35.271C25.8469 36.2016 23.4441 36.6668 20.4997 36.6668ZM20.4997 31.6668C16.583 28.7779 13.6594 25.9724 11.7288 23.2502C9.79829 20.5279 8.83301 17.8613 8.83301 15.2502C8.83301 13.2779 9.18717 11.5488 9.89551 10.0627C10.6038 8.57655 11.5136 7.3335 12.6247 6.3335C13.7358 5.3335 14.9858 4.5835 16.3747 4.0835C17.7636 3.5835 19.1386 3.3335 20.4997 3.3335C21.8608 3.3335 23.2358 3.5835 24.6247 4.0835C26.0136 4.5835 27.2636 5.3335 28.3747 6.3335C29.4858 7.3335 30.3955 8.57655 31.1038 10.0627C31.8122 11.5488 32.1663 13.2779 32.1663 15.2502C32.1663 17.8613 31.2011 20.5279 29.2705 23.2502C27.34 25.9724 24.4163 28.7779 20.4997 31.6668ZM20.4997 18.3335C21.4163 18.3335 22.2011 18.0071 22.8538 17.3543C23.5066 16.7016 23.833 15.9168 23.833 15.0002C23.833 14.0835 23.5066 13.2988 22.8538 12.646C22.2011 11.9932 21.4163 11.6668 20.4997 11.6668C19.583 11.6668 18.7983 11.9932 18.1455 12.646C17.4927 13.2988 17.1663 14.0835 17.1663 15.0002C17.1663 15.9168 17.4927 16.7016 18.1455 17.3543C18.7983 18.0071 19.583 18.3335 20.4997 18.3335Z" fill="#FFAC01"/>
</svg>
