<svg width="61" height="60" viewBox="0 0 61 60" fill="none" xmlns="http://www.w3.org/2000/svg">
<path d="M18.6449 36.7498C18.0337 35.6943 17.5754 34.611 17.2699 33.4998C16.9643 32.3887 16.8115 31.2498 16.8115 30.0832C16.8115 26.3609 18.1032 23.1943 20.6865 20.5832C23.2699 17.9721 26.4226 16.6665 30.1449 16.6665H30.4365L27.7699 13.9998L30.1032 11.6665L36.7699 18.3332L30.1032 24.9998L27.7699 22.6665L30.4365 19.9998H30.1449C27.3671 19.9998 25.006 20.979 23.0615 22.9373C21.1171 24.8957 20.1449 27.2776 20.1449 30.0832C20.1449 30.8054 20.2282 31.5137 20.3949 32.2082C20.5615 32.9026 20.8115 33.5832 21.1449 34.2498L18.6449 36.7498ZM30.1865 48.3332L23.5199 41.6665L30.1865 34.9998L32.5199 37.3332L29.8532 39.9998H30.1449C32.9226 39.9998 35.2837 39.0207 37.2282 37.0623C39.1726 35.104 40.1449 32.7221 40.1449 29.9165C40.1449 29.1943 40.0615 28.4859 39.8949 27.7915C39.7282 27.0971 39.4782 26.4165 39.1449 25.7498L41.6449 23.2498C42.256 24.3054 42.7143 25.3887 43.0199 26.4998C43.3254 27.611 43.4782 28.7498 43.4782 29.9165C43.4782 33.6387 42.1865 36.8054 39.6032 39.4165C37.0199 42.0276 33.8671 43.3332 30.1449 43.3332H29.8532L32.5199 45.9998L30.1865 48.3332Z" fill="#FFAC01"/>
</svg>
